{
	"asset":{
		"generator":"Khronos glTF Blender I/O v4.1.63",
		"version":"2.0"
	},
	"scene":0,
	"scenes":[
		{
			"name":"Scene",
			"nodes":[
				0
			]
		}
	],
	"nodes":[
		{
			"mesh":0,
			"name":"Yogurt",
			"rotation":[
				-0.0015715946210548282,
				-0.03603965416550636,
				0.00028028993983753026,
				0.9993491172790527
			],
			"scale":[
				0.3471530079841614,
				0.10129322111606598,
				0.34715303778648376
			],
			"translation":[
				0,
				1.1895755529403687,
				0.010389044880867004
			]
		}
	],
	"materials":[
		{
			"doubleSided":true,
			"name":"Material.001",
			"pbrMetallicRoughness":{
				"baseColorTexture":{
					"index":0
				},
				"metallicFactor":0,
				"roughnessFactor":0.5
			}
		},
		{
			"doubleSided":true,
			"name":"White",
			"pbrMetallicRoughness":{
				"metallicFactor":0
			}
		}
	],
	"meshes":[
		{
			"name":"Cylinder.002",
			"primitives":[
				{
					"attributes":{
						"POSITION":0,
						"NORMAL":1,
						"TEXCOORD_0":2
					},
					"indices":3,
					"material":0
				},
				{
					"attributes":{
						"POSITION":4,
						"NORMAL":5,
						"TEXCOORD_0":6
					},
					"indices":7,
					"material":1
				}
			]
		}
	],
	"textures":[
		{
			"sampler":0,
			"source":0
		}
	],
	"images":[
		{
			"mimeType":"image/jpeg",
			"name":"Mel",
			"uri":"Mel.jpg"
		}
	],
	"accessors":[
		{
			"bufferView":0,
			"componentType":5126,
			"count":615,
			"max":[
				1.4249560832977295,
				1.154760479927063,
				1.4280892610549927
			],
			"min":[
				-1.4271862506866455,
				-11.500226974487305,
				-1.4240530729293823
			],
			"type":"VEC3"
		},
		{
			"bufferView":1,
			"componentType":5126,
			"count":615,
			"type":"VEC3"
		},
		{
			"bufferView":2,
			"componentType":5126,
			"count":615,
			"type":"VEC2"
		},
		{
			"bufferView":3,
			"componentType":5123,
			"count":1608,
			"type":"SCALAR"
		},
		{
			"bufferView":4,
			"componentType":5126,
			"count":187,
			"max":[
				1.2740751504898071,
				0.9753679037094116,
				1.2740751504898071
			],
			"min":[
				-1.2740751504898071,
				-0.9326404929161072,
				-1.2740751504898071
			],
			"type":"VEC3"
		},
		{
			"bufferView":5,
			"componentType":5126,
			"count":187,
			"type":"VEC3"
		},
		{
			"bufferView":6,
			"componentType":5126,
			"count":187,
			"type":"VEC2"
		},
		{
			"bufferView":7,
			"componentType":5123,
			"count":474,
			"type":"SCALAR"
		}
	],
	"bufferViews":[
		{
			"buffer":0,
			"byteLength":7380,
			"byteOffset":0,
			"target":34962
		},
		{
			"buffer":0,
			"byteLength":7380,
			"byteOffset":7380,
			"target":34962
		},
		{
			"buffer":0,
			"byteLength":4920,
			"byteOffset":14760,
			"target":34962
		},
		{
			"buffer":0,
			"byteLength":3216,
			"byteOffset":19680,
			"target":34963
		},
		{
			"buffer":0,
			"byteLength":2244,
			"byteOffset":22896,
			"target":34962
		},
		{
			"buffer":0,
			"byteLength":2244,
			"byteOffset":25140,
			"target":34962
		},
		{
			"buffer":0,
			"byteLength":1496,
			"byteOffset":27384,
			"target":34962
		},
		{
			"buffer":0,
			"byteLength":948,
			"byteOffset":28880,
			"target":34963
		}
	],
	"samplers":[
		{
			"magFilter":9729,
			"minFilter":9987
		}
	],
	"buffers":[
		{
			"byteLength":29828,
			"uri":"Vigor.bin"
		}
	]
}
